<svg id="Layer_1" data-name="Layer 1" xmlns="http://www.w3.org/2000/svg" xmlns:xlink="http://www.w3.org/1999/xlink" viewBox="0 0 76.92 76.92"><defs><style>.cls-1{fill:#1b3d6e;}.cls-2{opacity:0.9;fill:url(#linear-gradient);}.cls-3{fill:#fff;}</style><linearGradient id="linear-gradient" x1="7.6" y1="44" x2="80.4" y2="44" gradientTransform="translate(2.73 -2.57) rotate(3.45)" gradientUnits="userSpaceOnUse"><stop offset="0" stop-color="#005e90"/><stop offset="1" stop-color="#2893ab"/></linearGradient></defs><rect class="cls-1" x="9.61" y="9.61" width="68.78" height="68.78" transform="translate(-10.75 76.54) rotate(-82.74)"/><rect class="cls-2" x="9.61" y="9.61" width="68.78" height="68.78" transform="translate(-8.11 -2.81) rotate(-3.45)"/><path class="cls-3" d="M30,38.27a6.35,6.35,0,0,0-.47.87,4.78,4.78,0,0,0-.08,1c0,.32,0,.48-.08.48l-.08.08A1.28,1.28,0,0,0,29,41l-.31.32a7.54,7.54,0,0,0-.71.63.72.72,0,0,1-1.19-.16L24,38.66a.62.62,0,0,1,.08-.94,7.27,7.27,0,0,1,.79-.56l.79-.63a1.68,1.68,0,0,1,1.1-.23,2.39,2.39,0,0,0,1.5-.64,2.92,2.92,0,0,0,.71-1.5,2,2,0,0,1,.4-1.18l.16-.08a.53.53,0,0,1,.23-.24,9.66,9.66,0,0,1,1-.87,12.57,12.57,0,0,1,1.66-1.26q5.37-3.63,7.5-3.87,5.3,0,6,.08c.26,0,.16.11-.31.32a37.66,37.66,0,0,0-6.16,3.08q-3.24,2.28-1.5,4.58a22.13,22.13,0,0,0,1.58,2c.26.16.23.34-.08.55l-.16.16a4.44,4.44,0,0,0-.59.51c-.24.24-.52.49-.83.75-.63.58-1.14,1.06-1.5,1.43-.43.15-.66.21-.71.15a8.92,8.92,0,0,0-2.93-2.44A2.92,2.92,0,0,0,30,38.27Zm9.55,10.5,3.08,3.48L32.71,62a1.05,1.05,0,0,1-1.57.15l-1.82-1.81c-.63-.48-.63-1,0-1.58Zm2.06-9.47,16.5,19.26a1,1,0,0,1-.08,1.58L56.17,61.8a1.14,1.14,0,0,1-1.58-.16L37.85,42.53c-.16-.15-.16-.42,0-.79l2.92-2.52A.73.73,0,0,1,41.64,39.3ZM64,31.16q.72,4.19-.63,6.71C62,40.24,59.9,41.09,57.11,40.4a4.22,4.22,0,0,0-4,1.26l-3.32,3.16L47,41.66l2.76-2.84A5.08,5.08,0,0,0,51,36.69a13.17,13.17,0,0,0,.24-2.61,11.14,11.14,0,0,1,.16-2.36q.63-2.29,5.68-4.51c.32-.15.56-.13.71.08s.24.48.08.63a22.37,22.37,0,0,0-1.81,3.24c-.37.21-.53.69-.48,1.42s.53,1.4,1.58,2.14q2.3,1.65,3.87-.87l1.11-1.66A10,10,0,0,1,63,30.85a.54.54,0,0,1,.55-.4A.68.68,0,0,1,64,31.16Z" transform="translate(-5.54 -5.54)"/></svg>