<svg id="Layer_1" data-name="Layer 1" xmlns="http://www.w3.org/2000/svg" viewBox="0 0 76.92 76.92"><defs><style>.cls-1{fill:#33355b;}.cls-2{fill:#5859a5;isolation:isolate;opacity:0.9;}.cls-3{fill:#fff;}</style></defs><rect class="cls-1" x="4.07" y="4.06" width="68.78" height="68.78" transform="translate(-4.54 71.75) rotate(-82.74)"/><rect class="cls-2" x="4.07" y="4.07" width="68.78" height="68.78" transform="translate(-2.24 2.39) rotate(-3.45)"/><path class="cls-3" d="M24.46,32.73a6.1,6.1,0,0,0-.47.87,4.77,4.77,0,0,0-.08,1c0,.32,0,.48-.08.48l-.08.08a1.18,1.18,0,0,0-.29.3l-.31.32a7.1,7.1,0,0,0-.71.63.73.73,0,0,1-1,.07.76.76,0,0,1-.17-.23l-2.79-3.13a.62.62,0,0,1,0-.88l.07-.06a7.48,7.48,0,0,1,.79-.56l.79-.63a1.7,1.7,0,0,1,1.1-.23,2.4,2.4,0,0,0,1.5-.64,2.91,2.91,0,0,0,.71-1.5,1.93,1.93,0,0,1,.4-1.18l.16-.08a.53.53,0,0,1,.23-.24,10.39,10.39,0,0,1,1-.87A11.89,11.89,0,0,1,26.88,25q5.37-3.63,7.5-3.87,5.29,0,6,.08c.26,0,.16.11-.31.32a38.09,38.09,0,0,0-6.16,3.08q-3.24,2.28-1.5,4.58a23.52,23.52,0,0,0,1.58,2c.26.16.23.34-.08.55l-.16.16a4.07,4.07,0,0,0-.59.51c-.24.24-.52.49-.83.75-.63.58-1.14,1.06-1.5,1.43-.43.15-.66.21-.71.15a8.85,8.85,0,0,0-2.93-2.44A2.91,2.91,0,0,0,24.46,32.73ZM34,43.23l3.08,3.48-9.92,9.75a1.06,1.06,0,0,1-1.47.24l-.1-.09L23.78,54.8c-.63-.48-.63-1,0-1.58Zm2.06-9.47L52.57,53a1,1,0,0,1,.11,1.41,1.54,1.54,0,0,1-.19.17l-1.86,1.66a1.14,1.14,0,0,1-1.58-.16L32.31,37c-.16-.15-.16-.42,0-.79l2.92-2.52a.72.72,0,0,1,.87.08Zm22.39-8.14q.72,4.18-.63,6.71c-1.37,2.37-3.47,3.22-6.26,2.53a4.22,4.22,0,0,0-4,1.26l-3.32,3.16-2.79-3.16,2.76-2.84a5.1,5.1,0,0,0,1.24-2.13,12.68,12.68,0,0,0,.24-2.61,11,11,0,0,1,.16-2.36q.63-2.3,5.68-4.51c.32-.15.56-.13.71.08s.24.48.08.63a22.34,22.34,0,0,0-1.81,3.24c-.37.21-.53.69-.48,1.42s.53,1.4,1.58,2.14q2.3,1.65,3.87-.87l1.11-1.66a9.85,9.85,0,0,1,.86-1.34.55.55,0,0,1,.55-.4A.68.68,0,0,1,58.46,25.62Z" transform="translate(0 0.01)"/></svg>