<svg id="Layer_1" data-name="Layer 1" xmlns="http://www.w3.org/2000/svg" viewBox="0 0 68.38 15.73"><defs><style>.cls-1{fill:#555;}</style></defs><path class="cls-1" d="M13.57,3.78a4.35,4.35,0,0,0-1.52-.91,7.2,7.2,0,0,0-2.42-.35H6a.17.17,0,0,0-.17.13.18.18,0,0,0,.09.21.92.92,0,0,1,.32.28.66.66,0,0,1,.12.42V14.84a.63.63,0,0,1-.12.41,1.55,1.55,0,0,1-.33.3.18.18,0,0,0-.08.2.17.17,0,0,0,.17.13H8.83A.18.18,0,0,0,9,15.7a.17.17,0,0,0-.12-.17.91.91,0,0,1-.31-.27.72.72,0,0,1-.11-.42V10a3.83,3.83,0,0,0,.94.19,5.3,5.3,0,0,0,1.13,0,6.14,6.14,0,0,0,1-.17c.29-.08.5-.16.66-.22a4.11,4.11,0,0,0,.64-.36,3.9,3.9,0,0,0,.8-.7,4.75,4.75,0,0,0,.68-1,3.44,3.44,0,0,0,.29-1.45A3.87,3.87,0,0,0,14.35,5,3.21,3.21,0,0,0,13.57,3.78Zm-5.1-.12h1.1a2.75,2.75,0,0,1,2.06.7,2.68,2.68,0,0,1,.68,1.94A2.77,2.77,0,0,1,12,7.77a2.51,2.51,0,0,1-.81.84,2.91,2.91,0,0,1-1,.39A3.76,3.76,0,0,1,8.47,9Z" transform="translate(-5.79 -2.34)"/><path class="cls-1" d="M20.35,6.64l-.29-.12a1.62,1.62,0,0,0-.51,0,1.37,1.37,0,0,0-.63.19,3.53,3.53,0,0,0-.62.44,5,5,0,0,0-.55.58l-.08.09V6.66a.17.17,0,0,0-.07-.14.16.16,0,0,0-.15,0l-2.35.46a.18.18,0,0,0,0,.35,2.77,2.77,0,0,1,.43.18c.11.07.13.29.13.41V15c0,.21-.05.29-.08.32a1.28,1.28,0,0,1-.33.24.2.2,0,0,0-.08.21.17.17,0,0,0,.18.13H18a.18.18,0,0,0,.18-.18.18.18,0,0,0-.12-.17,2.61,2.61,0,0,1-.3-.23.49.49,0,0,1-.08-.32V9.11a4,4,0,0,1,.62-.61,1.27,1.27,0,0,1,.86-.3,1,1,0,0,1,.55.13,1.59,1.59,0,0,1,.43.39.2.2,0,0,0,.21.06.18.18,0,0,0,.12-.17V6.81A.18.18,0,0,0,20.35,6.64Z" transform="translate(-5.79 -2.34)"/><path class="cls-1" d="M28.21,8a4.23,4.23,0,0,0-1.36-1.11,4.17,4.17,0,0,0-2-.44A4,4,0,0,0,23,6.9,4.29,4.29,0,0,0,21.64,8a5.24,5.24,0,0,0-1.16,3.28,5.78,5.78,0,0,0,.24,1.62,4.55,4.55,0,0,0,.75,1.53,4.08,4.08,0,0,0,3.38,1.63,4,4,0,0,0,1.82-.43,4.44,4.44,0,0,0,1.38-1.09A4.85,4.85,0,0,0,28.93,13a5,5,0,0,0,.31-1.73A6,6,0,0,0,29,9.55,4.43,4.43,0,0,0,28.21,8ZM26,14.63a1.63,1.63,0,0,1-1,.31h-.07A1.68,1.68,0,0,1,24,14.7a2.27,2.27,0,0,1-.74-.74,4.55,4.55,0,0,1-.49-1.16,5.86,5.86,0,0,1-.2-1.42,6.89,6.89,0,0,1,.1-1.45,4.6,4.6,0,0,1,.38-1.22,2.51,2.51,0,0,1,.68-.85,1.6,1.6,0,0,1,1-.33h.07a1.6,1.6,0,0,1,.94.27,2.45,2.45,0,0,1,.74.79,3.79,3.79,0,0,1,.47,1.18,8,8,0,0,1,.2,1.39,7,7,0,0,1-.09,1.47,3.79,3.79,0,0,1-.4,1.19A2.51,2.51,0,0,1,26,14.63Z" transform="translate(-5.79 -2.34)"/><path class="cls-1" d="M52.68,15.08a.61.61,0,0,1-.47-.27,1.22,1.22,0,0,1-.14-.64V6.66A.17.17,0,0,0,52,6.52a.17.17,0,0,0-.15,0l-2.3.46a.16.16,0,0,0-.14.16.18.18,0,0,0,.12.19l.42.18c.11.07.13.29.13.41v5.81a5.41,5.41,0,0,1-.79.61,1.87,1.87,0,0,1-1.06.26A1.63,1.63,0,0,1,47,14a2.48,2.48,0,0,1-.53-1.72V6.66a.17.17,0,0,0-.06-.14.17.17,0,0,0-.15,0l-2.32.46a.16.16,0,0,0-.14.16.18.18,0,0,0,.12.19l.23.08a.31.31,0,0,1,.15.08.3.3,0,0,1,.1.14.67.67,0,0,1,.05.29v4.4a4.72,4.72,0,0,0,.31,1.84,3.15,3.15,0,0,0,.78,1.16,2.74,2.74,0,0,0,1,.61,3.43,3.43,0,0,0,1,.17,3.32,3.32,0,0,0,1.78-.46,6.42,6.42,0,0,0,.84-.65,1,1,0,0,1,0,.15,1.3,1.3,0,0,0,.15.42,1.27,1.27,0,0,0,.27.3,2.37,2.37,0,0,0,.33.21.12.12,0,0,0,.09,0l.06,0,1.66-.61a.16.16,0,0,0,.12-.18A.19.19,0,0,0,52.68,15.08Z" transform="translate(-5.79 -2.34)"/><path class="cls-1" d="M60.33,7.44a3.57,3.57,0,0,0-1.22-.74,4.16,4.16,0,0,0-1.31-.23,4.32,4.32,0,0,0-2,.46,4.41,4.41,0,0,0-1.44,1.15A5.26,5.26,0,0,0,53.2,11.3,4.91,4.91,0,0,0,53.51,13a4.78,4.78,0,0,0,.9,1.52,4.65,4.65,0,0,0,1.43,1.09,4.34,4.34,0,0,0,1.9.41,3.86,3.86,0,0,0,2.65-1,3.54,3.54,0,0,0,.79-1,3,3,0,0,0,.32-1.23.18.18,0,0,0-.15-.18.17.17,0,0,0-.2.11,2.3,2.3,0,0,1-.41.64,3.68,3.68,0,0,1-.69.61,3.59,3.59,0,0,1-.87.45,2.55,2.55,0,0,1-.93.17A2.74,2.74,0,0,1,57,14.31a2.6,2.6,0,0,1-.89-.75,3.24,3.24,0,0,1-.55-1.08,4.8,4.8,0,0,1-.18-1.33V10.8h6a.18.18,0,0,0,.18-.18,4.56,4.56,0,0,0-.35-1.89A3.84,3.84,0,0,0,60.33,7.44ZM55.48,9.72a4,4,0,0,1,.19-.7,3.26,3.26,0,0,1,.43-.78,1.86,1.86,0,0,1,2.18-.58,1.55,1.55,0,0,1,.59.4,2.23,2.23,0,0,1,.42.73,3.53,3.53,0,0,1,.16.93Z" transform="translate(-5.79 -2.34)"/><path class="cls-1" d="M67.54,11.24a4.36,4.36,0,0,0-.86-.66c-.3-.19-.61-.37-.92-.55a9.12,9.12,0,0,1-1.17-.77,1,1,0,0,1-.36-.81.77.77,0,0,1,.07-.32.92.92,0,0,1,.23-.31,1.08,1.08,0,0,1,.39-.24,1.53,1.53,0,0,1,.56-.09,1.25,1.25,0,0,1,.68.17,2.07,2.07,0,0,1,.55.48,3.34,3.34,0,0,1,.41.66,5.91,5.91,0,0,1,.29.74.18.18,0,0,0,.2.12.18.18,0,0,0,.16-.18V7.19a.18.18,0,0,0-.1-.16,4.66,4.66,0,0,0-1.25-.47,5,5,0,0,0-.94-.11,3.46,3.46,0,0,0-1.41.25,2.75,2.75,0,0,0-.93.62,2.4,2.4,0,0,0-.52.83,2.55,2.55,0,0,0-.15.82,2.73,2.73,0,0,0,.1.78,2,2,0,0,0,.36.7,3.46,3.46,0,0,0,.64.62,8.85,8.85,0,0,0,1,.64l.88.5a4.91,4.91,0,0,1,.61.42,1.31,1.31,0,0,1,.34.42,1.13,1.13,0,0,1,.1.51,1.69,1.69,0,0,1-.06.38,1.41,1.41,0,0,1-.73.81,1.66,1.66,0,0,1-.76.15,1.55,1.55,0,0,1-.78-.19,2.56,2.56,0,0,1-.65-.54,3.39,3.39,0,0,1-.5-.8,4.09,4.09,0,0,1-.32-.93.19.19,0,0,0-.2-.14.18.18,0,0,0-.16.19V15a.19.19,0,0,0,.08.16,10.5,10.5,0,0,0,1.13.61A3.48,3.48,0,0,0,65,16a3.92,3.92,0,0,0,1.14-.18,3.84,3.84,0,0,0,1.1-.52,2.91,2.91,0,0,0,.83-.88,2.58,2.58,0,0,0,.08-2.37A3.49,3.49,0,0,0,67.54,11.24Z" transform="translate(-5.79 -2.34)"/><path class="cls-1" d="M74.06,14.4a.19.19,0,0,0-.2,0l-.18.17a.62.62,0,0,1-.19.12,1.6,1.6,0,0,1-.29.11,2.21,2.21,0,0,1-.92,0,1.08,1.08,0,0,1-.49-.22,1.52,1.52,0,0,1-.41-.53,2.5,2.5,0,0,1-.17-1V7.87h2.5a.18.18,0,0,0,.18-.18v-.8a.19.19,0,0,0-.18-.19H71.25V5.13A.19.19,0,0,0,71.14,5a.18.18,0,0,0-.2,0L68.45,7.56a.18.18,0,0,0,.13.31h.64V13.1a2.69,2.69,0,0,0,2.84,3,2.23,2.23,0,0,0,.83-.15,2.72,2.72,0,0,0,.65-.36,2.44,2.44,0,0,0,.45-.46.93.93,0,0,0,.18-.52A.18.18,0,0,0,74.06,14.4Z" transform="translate(-5.79 -2.34)"/><path class="cls-1" d="M43.54,17.28a2.72,2.72,0,0,1-.6.06,2.87,2.87,0,0,1-2.86-2.24L40,14.94a4.83,4.83,0,0,0,1.21-1,7.08,7.08,0,0,0,1.29-2,7.16,7.16,0,0,0,.55-2.66,6.66,6.66,0,0,0-2-5.1A6.48,6.48,0,0,0,39,2.84a6.93,6.93,0,0,0-2.27-.5,6.17,6.17,0,0,0-2.84.56,6.56,6.56,0,0,0-2.1,1.55,6.9,6.9,0,0,0-1.34,2.18A7.22,7.22,0,0,0,30,9a7,7,0,0,0,.43,2.66,6.73,6.73,0,0,0,1.28,2.14,6.62,6.62,0,0,0,1.91,1.49,6.27,6.27,0,0,0,2.36.69l1.53-.08a5.92,5.92,0,0,0,1-.23,2.65,2.65,0,0,1,.12.37,2.64,2.64,0,0,0,2.82,2,6.76,6.76,0,0,0,2.28-.44.18.18,0,0,0,.11-.22A.2.2,0,0,0,43.54,17.28Zm-8.08-4.5a.19.19,0,0,0-.14.2.19.19,0,0,0,.19.16h.08a3.47,3.47,0,0,1,2.27,1.46A3.83,3.83,0,0,1,35,14.46a4,4,0,0,1-1.39-1.06,5.53,5.53,0,0,1-1-1.83,7.84,7.84,0,0,1-.4-2.66,7.31,7.31,0,0,1,.33-2.29,4.91,4.91,0,0,1,.92-1.69,3.84,3.84,0,0,1,1.36-1,3.94,3.94,0,0,1,1.72-.37,3.78,3.78,0,0,1,1.71.4,4,4,0,0,1,1.35,1.16,5.84,5.84,0,0,1,.89,1.86,8.43,8.43,0,0,1,.32,2.44,7.3,7.3,0,0,1-.32,2.28,5.23,5.23,0,0,1-.89,1.71l-.13.17-.12.15A3.38,3.38,0,0,0,37,12.6,6.74,6.74,0,0,0,35.46,12.78Z" transform="translate(-5.79 -2.34)"/></svg>