<svg id="Layer_1" data-name="Layer 1" xmlns="http://www.w3.org/2000/svg" viewBox="0 0 1121.5 477.7941">
  <defs>
    <style>
      .cls-1 {
        fill: #fff;
      }
    </style>
  </defs>
  <g>
    <g>
      <path class="cls-1" d="M127.77965,23.65186c-6.03076-6.02963-14.41448-11.06917-24.91343-14.9518C92.45126,4.8248,79.07509,2.86277,63.11107,2.86277H3.24769A2.98913,2.98913,0,0,0,1.81617,8.48048a16.63019,16.63019,0,0,1,5.18309,4.52945,11.03139,11.03139,0,0,1,2.03068,6.946V204.90217a10.37524,10.37524,0,0,1-1.98869,6.73943,22.69052,22.69052,0,0,1-5.39132,4.84662,2.98982,2.98982,0,0,0,1.59776,5.52125H49.94881a.33813.33813,0,0,1,.11745,0,2.99146,2.99146,0,0,0,.90158-5.84466,15.36365,15.36365,0,0,1-5.01117-4.37115,11.67,11.67,0,0,1-1.79011-6.88468V125.85314A64.03617,64.03617,0,0,0,59.566,129.04753a96.44994,96.44994,0,0,0,18.5933-.15886,99.65014,99.65014,0,0,0,15.68883-2.91184,100.20454,100.20454,0,0,0,10.857-3.57284,69.70919,69.70919,0,0,0,10.49781-5.89232,65.09459,65.09459,0,0,0,12.99715-11.49641,72.8242,72.8242,0,0,0,11.1242-17.16178c3.20858-6.76723,4.83982-14.74584,4.83982-23.69524a64.98057,64.98057,0,0,0-3.60065-20.3766A51.4704,51.4704,0,0,0,127.77965,23.65186ZM44.17337,21.69778h2.01025c1.70727,0,3.94448-.04142,6.69121-.15887,2.69168-.09589,5.789-.15774,9.30629-.15774,14.96655,0,26.32509,3.86845,33.74652,11.48223,7.44867,7.64158,11.21442,18.38052,11.21442,31.92123,0,10.0439-1.85933,18.16662-5.515,24.14235A41.3872,41.3872,0,0,1,88.21,102.83309a47.03667,47.03667,0,0,1-16.65226,6.33318c-13.76086,2.34728-22.19394,1.74188-27.3844.23433Z"/>
      <path class="cls-1" d="M238.92977,70.51922q-2.92261-1.30131-4.73655-1.96884c-1.03945-.3722-2.92545-.80569-8.37748-.80569a21.94126,21.94126,0,0,0-10.37412,3.0361A53.97761,53.97761,0,0,0,205.32907,78.078a92.74365,92.74365,0,0,0-9.08785,9.3897c-.44029.52994-.87377,1.05364-1.28683,1.56939V70.73937a2.99828,2.99828,0,0,0-3.57284-2.93226l-38.558,7.53093a2.99216,2.99216,0,0,0-.30923,5.79587,37.00582,37.00582,0,0,1,7.07646,3.02191c1.81735,1.03321,2.0931,4.61286,2.0931,6.65035V207.119c0,3.545-.82612,4.89486-1.32145,5.38394a25.6853,25.6853,0,0,1-5.34876,3.92349,2.99516,2.99516,0,0,0,1.50017,5.58309h43.57594a.377.377,0,0,1,.12369,0,2.9937,2.9937,0,0,0,1.04627-5.79643,34.12661,34.12661,0,0,1-4.94252-3.78674c-.89477-.82612-1.38329-2.71836-1.38329-5.30735V110.97a71.0615,71.0615,0,0,1,10.18121-10.01609,21.385,21.385,0,0,1,14.09164-4.97032,17.30241,17.30241,0,0,1,9.10714,2.23721,26.47877,26.47877,0,0,1,7.03617,6.34737,2.98969,2.98969,0,0,0,5.33458-1.852V73.25857A2.90686,2.90686,0,0,0,238.92977,70.51922Z"/>
      <path class="cls-1" d="M367.69557,93.02352A69.217,69.217,0,0,0,345.412,74.84271c-8.96985-4.70875-19.77064-7.09121-32.10736-7.09121a66.18267,66.18267,0,0,0-30.52374,6.91816,71.58146,71.58146,0,0,0-22.73069,18.14676,81.8165,81.8165,0,0,0-14.15348,25.209,86.60768,86.60768,0,0,0-4.86819,28.57592,96.61249,96.61249,0,0,0,3.8832,26.52424,77.27532,77.27532,0,0,0,12.39118,25.09953,67.89116,67.89116,0,0,0,22.27735,19.01316c9.17579,5.03273,20.31418,7.58654,33.098,7.58654a64.13982,64.13982,0,0,0,29.75268-6.91816,74.91432,74.91432,0,0,0,22.68359-17.95385,80.54,80.54,0,0,0,14.48371-25.07116,83.10186,83.10186,0,0,0,5.039-28.28655,102.28922,102.28922,0,0,0-4.03413-28.425A73.3039,73.3039,0,0,0,367.69557,93.02352ZM330.79041,201.42635a27.37935,27.37935,0,0,1-16.01283,5.19727l-1.11548.02043a27.5966,27.5966,0,0,1-14.61419-3.96491,37.44981,37.44981,0,0,1-12.04-12.21926,70.65336,70.65336,0,0,1-8.11648-18.94508,96.024,96.024,0,0,1-3.3317-23.41268,121.59318,121.59318,0,0,1,1.68-23.7083,72.118,72.118,0,0,1,6.31276-20.01177,40.4237,40.4237,0,0,1,11.08278-13.88511,26.513,26.513,0,0,1,15.943-5.46564l1.07463-.01419a27.04829,27.04829,0,0,1,15.37791,4.378,40.64321,40.64321,0,0,1,12.26125,13.01076,65.99073,65.99073,0,0,1,7.62739,19.3309,133.4936,133.4936,0,0,1,3.23583,22.81353,110.25118,110.25118,0,0,1-1.38443,24.10774,62.07208,62.07208,0,0,1-6.55958,19.454A42.13833,42.13833,0,0,1,330.79041,201.42635Z"/>
      <path class="cls-1" d="M768.89712,208.86764c-3.90306-.68143-6.45006-2.14756-7.77888-4.49485a21.20249,21.20249,0,0,1-2.27126-10.43653V70.73937a2.981,2.981,0,0,0-1.09449-2.31268,3.05544,3.05544,0,0,0-2.48516-.627l-37.628,7.53151a2.98883,2.98883,0,0,0-.35122,5.76863,39.38112,39.38112,0,0,1,6.83589,3.0429c1.81,1.03264,2.07834,4.60548,2.07834,6.64354v95.261a89.76471,89.76471,0,0,1-12.87911,10.05013c-4.39955,2.80971-10.22321,4.23385-17.35585,4.23385A26.7827,26.7827,0,0,1,675.302,191.1067c-5.72721-6.18169-8.62543-15.68146-8.62543-28.21732v-92.15a2.9844,2.9844,0,0,0-1.10187-2.31268,3.019,3.019,0,0,0-2.47778-.627l-37.93838,7.53151A2.96653,2.96653,0,0,0,622.7562,78.078a3.00489,3.00489,0,0,0,2.05111,3.02872L628.57306,82.36a8.21638,8.21638,0,0,1,2.51239,1.36968,5.923,5.923,0,0,1,1.63181,2.27863,12.469,12.469,0,0,1,.68824,4.78421V162.903c0,12.02635,1.72146,22.17352,5.10139,30.15212,3.39356,7.99279,7.69661,14.402,12.811,19.08239a45.1398,45.1398,0,0,0,16.62562,9.87878,53.47022,53.47022,0,0,0,16.12173,2.80857c11.60024,0,21.41664-2.54019,29.20175-7.53774a105.11256,105.11256,0,0,0,13.88568-10.533c.11007.8681.21957,1.69365.35858,2.44374a20.42191,20.42191,0,0,0,2.42218,6.82284,17.68347,17.68347,0,0,0,4.30988,4.86648,41.77868,41.77868,0,0,0,5.4038,3.55185,2.981,2.981,0,0,0,1.45989.38582,3.3083,3.3083,0,0,0,1.03208-.17872L769.414,214.61641a2.98722,2.98722,0,0,0-.51689-5.74877Z"/>
      <path class="cls-1" d="M894.304,83.5924a56.39546,56.39546,0,0,0-20.02538-12.07514,66.30043,66.30043,0,0,0-21.49889-3.76576c-12.34352,0-23.40644,2.492-32.90622,7.38A73.772,73.772,0,0,0,796.24126,94.097a82.98547,82.98547,0,0,0-14.11266,25.5262,84.20107,84.20107,0,0,0-4.77116,27.30157,82.40736,82.40736,0,0,0,5.09457,28.46584,78.99908,78.99908,0,0,0,14.82812,24.9208,74.28467,74.28467,0,0,0,23.44729,17.795,70.411,70.411,0,0,0,31.1093,6.73263,63.71038,63.71038,0,0,0,24.32732-4.60549,64.35573,64.35573,0,0,0,19.21345-12.00649,58.41412,58.41412,0,0,0,12.88764-17.02333,48.29906,48.29906,0,0,0,5.18309-20.03276,2.99018,2.99018,0,0,0-5.77544-1.19152,37.19209,37.19209,0,0,1-6.698,10.5676,58.569,58.569,0,0,1-11.32446,9.98886,67.169,67.169,0,0,1-14.25678,7.35164,43.15534,43.15534,0,0,1-15.09649,2.78134,44.41366,44.41366,0,0,1-20.57685-4.52946,43.35288,43.35288,0,0,1-14.663-12.1716,54.2281,54.2281,0,0,1-8.92161-17.829,77.10128,77.10128,0,0,1-3.00772-21.719v-5.776h98.58589a2.99659,2.99659,0,0,0,2.98729-3.00091c0-11.86238-1.92685-22.23593-5.74083-30.8483A63.84128,63.84128,0,0,0,894.304,83.5924Zm-79.46265,37.44873a62.55252,62.55252,0,0,1,3.10532-11.62067,47.79526,47.79526,0,0,1,7.06965-12.68679,32.13506,32.13506,0,0,1,10.34007-8.605c7.00724-3.67611,16.831-4.22023,25.26407-.964a26.16122,26.16122,0,0,1,9.7063,6.62255,33.5724,33.5724,0,0,1,6.89777,11.95089,52.90047,52.90047,0,0,1,2.58839,15.29621H814.84134Z"/>
      <path class="cls-1" d="M1012.48915,145.81668a77.9702,77.9702,0,0,0-14.01561-10.75994q-7.55931-4.55329-15.11067-8.95622a156.28725,156.28725,0,0,1-19.21345-12.61076c-3.99271-3.18758-5.94112-7.55193-5.94112-13.33418a13.051,13.051,0,0,1,1.19152-5.25287,15.275,15.275,0,0,1,3.66929-5.10139,19.90772,19.90772,0,0,1,6.42227-3.94447,25.50873,25.50873,0,0,1,9.2382-1.51493,21.118,21.118,0,0,1,11.16562,2.86474A34.68043,34.68043,0,0,1,998.831,94.9986a51.75967,51.75967,0,0,1,6.82227,10.95285,102.488,102.488,0,0,1,4.702,12.04,2.99647,2.99647,0,0,0,5.85147-.909V79.46863a3.00179,3.00179,0,0,0-1.63181-2.67126,76.66114,76.66114,0,0,0-35.8521-9.4107c-9.14175,0-16.91382,1.343-23.11651,4.00009a45.19505,45.19505,0,0,0-15.25535,10.264,37.99511,37.99511,0,0,0-8.48018,13.60936A40.84069,40.84069,0,0,0,929.351,108.629a46.39249,46.39249,0,0,0,1.69309,12.88651,33.26354,33.26354,0,0,0,5.82426,11.35967,59.62335,59.62335,0,0,0,10.55282,10.243,150.51875,150.51875,0,0,0,15.71607,10.42235l14.42924,8.30258a68.5462,68.5462,0,0,1,10.04389,6.89774,22.27306,22.27306,0,0,1,5.52806,6.73886,18.91263,18.91263,0,0,1,1.71465,8.37861,23.46894,23.46894,0,0,1-1.116,6.19531,21.57547,21.57547,0,0,1-4.0069,7.283,24.15266,24.15266,0,0,1-7.81973,6.12041c-3.2222,1.65848-7.44126,2.48516-12.57785,2.48516a25.67277,25.67277,0,0,1-12.79687-3.22844,38.669,38.669,0,0,1-10.62206-8.87394,59.05957,59.05957,0,0,1-8.192-12.99034,76.71836,76.71836,0,0,1-5.28691-15.23436,2.99717,2.99717,0,0,0-5.91332.6888V206.7405a2.95935,2.95935,0,0,0,1.39067,2.51921,161.44155,161.44155,0,0,0,18.51783,10.05864A57.77492,57.77492,0,0,0,971.21229,224.46a65.28738,65.28738,0,0,0,18.7249-2.94644,63.08945,63.08945,0,0,0,17.93286-8.55734,47.781,47.781,0,0,0,13.53446-14.38045,42.338,42.338,0,0,0,1.35549-39.00507A54.89525,54.89525,0,0,0,1012.48915,145.81668Z"/>
      <path class="cls-1" d="M1119.39181,197.75705a3.00522,3.00522,0,0,0-3.26986.6542c-.9986,1.01846-2.01082,1.95465-2.99464,2.86361a14.03248,14.03248,0,0,1-3.07073,2.0511,23.00311,23.00311,0,0,1-4.7428,1.65224c-3.31808.82611-8.28159,1.14272-15.17932-.18611a19.35107,19.35107,0,0,1-7.999-3.68972,22.88636,22.88636,0,0,1-6.62312-8.7633c-1.87919-3.95129-2.8358-9.43169-2.8358-16.25963V90.67567h40.89106a2.99646,2.99646,0,0,0,2.99467-2.99467V74.51193a2.99682,2.99682,0,0,0-2.99467-2.99467h-40.27148V45.66764a2.98976,2.98976,0,0,0-5.1428-2.07834l-40.74692,41.99917a2.99065,2.99065,0,0,0,2.1481,5.07358H1040.046v85.72037c0,15.84657,4.4886,28.0386,13.33418,36.22317,8.7911,8.10967,19.97091,12.22607,33.22963,12.22607a37.23,37.23,0,0,0,13.62354-2.40175,41.6677,41.6677,0,0,0,10.6215-5.90027,35.78523,35.78523,0,0,0,7.36639-7.54455A14.91481,14.91481,0,0,0,1121.25,200.531,3.002,3.002,0,0,0,1119.39181,197.75705Z"/>
      <path class="cls-1" d="M619.08012,244.96088a48.977,48.977,0,0,1-9.872.91519c-13.22354,0-36.9046-4.757-46.8736-36.67083-.29561-.93619-.60484-1.83777-.92144-2.7263,7.82655-4.62648,12.86552-8.79848,19.7088-16.13651a116.19409,116.19409,0,0,0,21.25773-32.9743c5.54848-12.73559,8.57039-27.4054,8.95621-43.6168.37845-18.13995-2.5958-34.39278-8.83933-48.3125A111.46709,111.46709,0,0,0,578.1408,30.17852,105.85774,105.85774,0,0,0,544.34719,8.24671a110.36777,110.36777,0,0,0-37.312-8.20612c-17.27866-.43406-32.9675,2.61509-46.47416,9.06628a109.346,109.346,0,0,0-34.48921,25.457,113.824,113.824,0,0,0-21.86317,35.73521,115.36337,115.36337,0,0,0-7.90315,39.54863,114.04391,114.04391,0,0,0,7.04923,43.61737,111.70418,111.70418,0,0,0,20.98256,35.08782,109.12276,109.12276,0,0,0,31.27442,24.32845,103.06118,103.06118,0,0,0,38.647,11.3035l25.11258-1.267a97.34282,97.34282,0,0,0,15.99183-3.69653c.68824,1.97565,1.32144,4.00689,1.886,6.07843,5.83105,21.24413,21.837,32.479,46.275,32.479,19.1516,0,36.609-6.84269,37.34546-7.11788a2.99679,2.99679,0,0,0-1.78952-5.7ZM486.65918,171.10912a2.99806,2.99806,0,0,0,.67406,5.91956c.12369,0-.22751-.04085,1.34244-.04085,5.473,0,23.68163,5.52805,37.27,23.96305a63.30249,63.30249,0,0,1-46.7431-2.223,65.87265,65.87265,0,0,1-22.79251-17.41029c-6.78711-7.84754-12.41163-17.97427-16.72774-30.0829-4.34393-12.1438-6.53972-26.77219-6.53972-43.5141,0-14.02242,1.82416-26.6763,5.42423-37.60759a82.01957,82.01957,0,0,1,14.99322-27.68739,64.41894,64.41894,0,0,1,50.56332-23.22715A60.79319,60.79319,0,0,1,532.162,25.75914,64.11961,64.11961,0,0,1,554.26,44.78705c6.243,8.36386,11.173,18.60067,14.663,30.41312a141.41694,141.41694,0,0,1,5.30733,40.05133c0,13.83064-1.77536,26.38637-5.28692,37.33241a86.28836,86.28836,0,0,1-14.61477,28.0386c-.97761,1.20457-1.6386,2.0999-2.18955,2.85a16.61816,16.61816,0,0,1-1.9887,2.39608c-8.94259-9.02544-22.043-17.63725-38.97783-17.63725A114.096,114.096,0,0,0,486.65918,171.10912Z"/>
    </g>
    <g>
      <path class="cls-1" d="M19.21228,475.92116H9.51562V366.4715h29.0843c25.01726,0,37.52305,14.84967,37.52305,33.14565,0,18.29656-12.50579,33.77206-37.523,33.77206H19.21228Zm0-100.84977v49.71849H39.69157c14.38385,0,26.57928-8.75479,26.57928-25.17273,0-16.26246-12.19543-24.54576-26.57928-24.54576Z"/>
      <path class="cls-1" d="M129.90282,428.23052c0-10.478-8.1284-14.69988-17.35412-14.69988-8.59933,0-15.48118,3.60177-21.26626,7.50767l-4.5323-7.19164a45.13272,45.13272,0,0,1,26.42438-8.75479c16.41794,0,26.26949,9.22572,26.26949,23.449v47.38028h-9.54119v-8.59933c-3.90647,6.87617-13.28709,10.47227-21.57662,10.47227-15.01025,0-25.0167-8.75479-25.0167-21.10568,0-12.66637,9.07026-20.16894,23.29921-20.16894h16.57283c4.84833,0,6.72128-2.50445,6.72128-6.25545Zm0,23.13864v-9.53552c-1.71805,2.03352-5.31359,2.65934-8.90969,2.65934H108.1713c-10.16191,0-14.85535,5.0038-14.85535,12.19544,0,5.94,4.538,12.97672,16.10757,12.97672C119.8958,469.66514,129.90282,463.88062,129.90282,451.36916Z"/>
      <path class="cls-1" d="M195.88377,415.40869h-4.69343c-12.19543,0-20.94966,5.62962-20.94966,21.89209v38.62038h-9.38119V406.96482h9.06516v11.72961c3.91157-9.22516,12.51146-12.97672,20.80043-12.97672,1.56259,0,3.28007.15546,5.15869.31036Z"/>
      <path class="cls-1" d="M223.71017,377.8862v29.07862h17.04376v7.97294H223.71017v46.75445c0,6.41091,4.53229,6.72071,9.85155,6.72071a48.69317,48.69317,0,0,0,7.19221-.46526v7.9735a96.50822,96.50822,0,0,1-10.63285.62583c-7.19221,0-15.947-1.87806-15.947-14.69988V414.93776H202.289v-7.97294h11.88507V377.8862Z"/>
      <path class="cls-1" d="M317.20715,405.09188c19.8529,0,35.805,15.3206,35.805,36.4314,0,21.10512-15.95209,36.27082-35.805,36.27082-19.70367,0-35.6501-15.1657-35.6501-36.27082C281.55705,420.41248,297.50348,405.09188,317.20715,405.09188Zm0,8.43876c-15.32628,0-25.95912,12.2011-25.95912,27.99264s10.63284,27.987,25.95912,27.987c15.47549,0,26.1089-12.19543,26.1089-27.987S332.68264,413.53064,317.20715,413.53064Z"/>
      <path class="cls-1" d="M374.11215,382.263c0-12.82126,8.28386-16.41736,15.63664-16.41736a74.51819,74.51819,0,0,1,9.38062.62583v8.28386a52.55041,52.55041,0,0,0-6.88184-.78129c-6.09488,0-8.59931,2.50444-8.59931,9.38062v23.61013h14.07346v7.97294H383.64826v60.9834h-9.53611v-60.9834H362.22708v-7.97294h11.88507Z"/>
      <path class="cls-1" d="M492.47093,457.78007c14.53931,0,25.638-7.818,29.705-20.79476h23.92559c-6.41092,25.79855-28.92883,40.80879-53.63063,40.80879-32.20889,0-57.07069-23.61013-57.07069-56.60033,0-32.99076,24.8618-56.60033,57.07069-56.60033,24.7018,0,47.21971,15.01025,53.63063,40.8088H522.176c-4.06706-12.97673-15.16573-20.79533-29.705-20.79533-20.63927,0-34.403,15.63664-34.403,36.58686C458.068,442.14911,471.83166,457.78007,492.47093,457.78007Z"/>
      <path class="cls-1" d="M578.77061,475.92116H558.60167V366.4715h20.16894Z"/>
      <path class="cls-1" d="M635.99166,428.23052c0-5.15869-4.067-8.44443-11.88564-8.44443-7.19164,0-16.25679,3.5961-21.576,6.72694l-7.9735-15.32627a61.29982,61.29982,0,0,1,30.64688-8.7548c16.26246,0,31.11781,7.50257,31.11781,26.425v47.06425h-20.3295v-6.72695c-3.75157,5.62962-11.88564,8.59989-20.014,8.59989-15.16514,0-25.01724-10.78831-25.01724-22.51281,0-13.60312,10.007-22.04755,25.954-22.04755h14.07348c3.44121,0,5.0038-1.562,5.0038-4.22193Zm0,22.04755v-5.15869c-1.25223,1.24655-3.44121,1.56259-6.256,1.56259h-7.65749c-6.41091,0-10.16758,2.81481-10.16758,7.818,0,4.84833,3.91214,8.44443,10.16758,8.44443C629.42528,462.94443,635.99166,459.18776,635.99166,450.27807Z"/>
      <path class="cls-1" d="M716.9772,424.32405h-8.59935c-10.31736,0-15.01025,4.84266-15.01025,17.35412v34.243H673.04321V404.31058h19.70367v11.41414c2.81481-7.66313,9.691-12.356,18.60635-12.356a22.89161,22.89161,0,0,1,5.624.62583Z"/>
      <path class="cls-1" d="M752.93764,475.92116h-20.3295V421.50924h-10.007V404.31058h30.33652ZM741.83386,366.4715a13.11114,13.11114,0,0,1,13.1373,13.13219,13.05726,13.05726,0,0,1-26.114,0A13.07753,13.07753,0,0,1,741.83386,366.4715Z"/>
      <path class="cls-1" d="M800.93864,454.02907l16.25679-49.71849h21.42116l-25.48252,71.61058H787.96192l-24.39711-71.61058h22.04755Z"/>
      <path class="cls-1" d="M886.92738,428.23052c0-5.15869-4.067-8.44443-11.88507-8.44443-7.1922,0-16.26246,3.5961-21.57605,6.72694l-7.9735-15.32627A61.26587,61.26587,0,0,1,876.134,402.432c16.26249,0,31.11781,7.50257,31.11781,26.425v47.06425h-20.3244v-6.72695c-3.75664,5.62962-11.88507,8.59989-20.01346,8.59989-15.17079,0-25.01726-10.78831-25.01726-22.51281,0-13.60312,10.007-22.04755,25.95345-22.04755h14.07405c3.43553,0,5.00322-1.562,5.00322-4.22193Zm0,22.04755v-5.15869c-1.25222,1.24655-3.44063,1.56259-6.25545,1.56259h-7.66311c-6.41094,0-10.16191,2.81481-10.16191,7.818,0,4.84833,3.90644,8.44443,10.16191,8.44443C880.3559,462.94443,886.92738,459.18776,886.92738,450.27807Z"/>
      <path class="cls-1" d="M949.61752,377.10491v27.20567h15.48114v17.19866H949.61752v32.36437c0,4.53286,3.59607,5.15868,6.72635,5.15868,5.15869,0,9.38062-.47093,9.38062-.47093v17.3598s-9.85155.93619-15.79154.93619c-10.16191,0-20.63986-1.71749-20.63986-16.1019V421.50924H918.03442V404.31058h11.25867V377.10491Z"/>
      <path class="cls-1" d="M1049.37,446.05557H996.05533A16.21439,16.21439,0,0,0,1012.47326,460.44c5.94,0,11.569-2.49934,14.38385-7.34767l21.10572,2.189c-6.41095,15.32061-19.85857,22.51281-35.8056,22.51281-21.42113,0-37.52305-15.79153-37.52305-37.67851,0-21.89209,15.79153-37.68363,37.21269-37.68363,19.698,0,37.52308,12.82183,37.52308,42.84232ZM995.5844,432.453h32.054a15.53286,15.53286,0,0,0-15.79153-13.13219A15.96789,15.96789,0,0,0,995.5844,432.453Z"/>
    </g>
  </g>
</svg>
